<svg xmlns="http://www.w3.org/2000/svg" xmlns:xlink="http://www.w3.org/1999/xlink" width="48" zoomAndPan="magnify" viewBox="0 0 36 36.000001" height="48" preserveAspectRatio="xMidYMid meet" version="1.0"><defs><clipPath id="id1"><path d="M 1 0 L 35.511719 0 L 35.511719 35 L 1 35 Z M 1 0 " clip-rule="nonzero"/></clipPath><clipPath id="id2"><path d="M 24 24 L 35.511719 24 L 35.511719 35 L 24 35 Z M 24 24 " clip-rule="nonzero"/></clipPath></defs><g clip-path="url(#id1)"><path fill="#000000" d="M 23.648438 26.179688 C 23.820312 26.347656 24.039062 26.433594 24.308594 26.433594 C 24.578125 26.433594 24.796875 26.347656 24.96875 26.179688 L 26.839844 24.433594 C 27.039062 24.234375 27.136719 24.015625 27.136719 23.773438 C 27.136719 23.53125 27.039062 23.3125 26.839844 23.113281 L 20.371094 16.644531 C 20.511719 16.246094 20.625 15.863281 20.710938 15.496094 C 20.796875 15.125 20.839844 14.742188 20.839844 14.34375 C 20.839844 12.699219 20.257812 11.292969 19.09375 10.132812 C 17.929688 8.96875 16.523438 8.386719 14.878906 8.386719 C 14.398438 8.386719 13.914062 8.457031 13.433594 8.597656 C 12.949219 8.742188 12.480469 8.9375 12.027344 9.195312 L 15.773438 12.898438 L 13.472656 15.070312 L 9.8125 11.449219 C 9.558594 11.90625 9.367188 12.371094 9.238281 12.855469 C 9.109375 13.335938 9.046875 13.835938 9.046875 14.34375 C 9.046875 15.960938 9.613281 17.332031 10.75 18.453125 C 11.886719 19.574219 13.261719 20.132812 14.878906 20.132812 C 15.277344 20.132812 15.667969 20.097656 16.050781 20.027344 C 16.433594 19.957031 16.824219 19.851562 17.21875 19.707031 Z M 18.027344 34.394531 C 15.617188 34.394531 13.375 33.960938 11.304688 33.097656 C 9.230469 32.230469 7.429688 31.03125 5.898438 29.5 C 4.363281 27.96875 3.164062 26.164062 2.300781 24.09375 C 1.433594 22.023438 1.003906 19.78125 1.003906 17.367188 C 1.003906 14.984375 1.433594 12.757812 2.300781 10.683594 C 3.164062 8.613281 4.363281 6.8125 5.898438 5.277344 C 7.429688 3.746094 9.230469 2.539062 11.304688 1.660156 C 13.375 0.78125 15.617188 0.339844 18.027344 0.339844 C 20.414062 0.339844 22.640625 0.78125 24.710938 1.660156 C 26.785156 2.539062 28.585938 3.746094 30.117188 5.277344 C 31.652344 6.8125 32.855469 8.613281 33.738281 10.683594 C 34.617188 12.757812 35.054688 14.984375 35.054688 17.367188 C 35.054688 19.78125 34.617188 22.023438 33.738281 24.09375 C 32.855469 26.164062 31.652344 27.96875 30.117188 29.5 C 28.585938 31.03125 26.785156 32.230469 24.710938 33.097656 C 22.640625 33.960938 20.414062 34.394531 18.027344 34.394531 Z M 18.027344 17.367188 Z M 18.027344 31.839844 C 22.144531 31.839844 25.585938 30.457031 28.351562 27.691406 C 31.117188 24.921875 32.503906 21.484375 32.503906 17.367188 C 32.503906 13.253906 31.117188 9.8125 28.351562 7.046875 C 25.585938 4.277344 22.144531 2.894531 18.027344 2.894531 C 13.914062 2.894531 10.472656 4.277344 7.707031 7.046875 C 4.941406 9.8125 3.554688 13.253906 3.554688 17.367188 C 3.554688 21.484375 4.941406 24.921875 7.707031 27.691406 C 10.472656 30.457031 13.914062 31.839844 18.027344 31.839844 Z M 18.027344 31.839844 " fill-opacity="1" fill-rule="nonzero"/></g><g clip-path="url(#id2)"><path fill="#ff1616" d="M 29.628906 32.246094 L 30.449219 32.246094 L 30.449219 29.976562 L 32.734375 29.976562 L 32.734375 29.15625 L 30.449219 29.15625 L 30.449219 26.773438 L 29.628906 26.773438 L 29.628906 29.15625 L 27.261719 29.15625 L 27.261719 29.976562 L 29.628906 29.976562 Z M 29.996094 34.984375 C 29.222656 34.984375 28.5 34.84375 27.835938 34.566406 C 27.167969 34.289062 26.589844 33.902344 26.097656 33.410156 C 25.605469 32.917969 25.21875 32.335938 24.941406 31.671875 C 24.664062 31.007812 24.523438 30.285156 24.523438 29.511719 C 24.523438 28.742188 24.664062 28.027344 24.941406 27.363281 C 25.21875 26.695312 25.605469 26.117188 26.097656 25.625 C 26.589844 25.132812 27.167969 24.742188 27.835938 24.460938 C 28.5 24.179688 29.222656 24.039062 29.996094 24.039062 C 30.761719 24.039062 31.480469 24.179688 32.144531 24.460938 C 32.8125 24.742188 33.390625 25.132812 33.882812 25.625 C 34.375 26.117188 34.761719 26.695312 35.046875 27.363281 C 35.328125 28.027344 35.46875 28.742188 35.46875 29.511719 C 35.46875 30.285156 35.328125 31.007812 35.046875 31.671875 C 34.761719 32.335938 34.375 32.917969 33.882812 33.410156 C 33.390625 33.902344 32.8125 34.289062 32.144531 34.566406 C 31.480469 34.84375 30.761719 34.984375 29.996094 34.984375 Z M 29.996094 29.511719 Z M 29.996094 34.164062 C 31.273438 34.164062 32.367188 33.707031 33.28125 32.792969 C 34.191406 31.882812 34.648438 30.789062 34.648438 29.511719 C 34.648438 28.234375 34.191406 27.136719 33.28125 26.226562 C 32.367188 25.3125 31.273438 24.859375 29.996094 24.859375 C 28.71875 24.859375 27.625 25.3125 26.710938 26.226562 C 25.800781 27.136719 25.34375 28.234375 25.34375 29.511719 C 25.34375 30.789062 25.800781 31.882812 26.710938 32.792969 C 27.625 33.707031 28.71875 34.164062 29.996094 34.164062 Z M 29.996094 34.164062 " fill-opacity="1" fill-rule="nonzero"/></g></svg>