<svg xmlns="http://www.w3.org/2000/svg" xmlns:xlink="http://www.w3.org/1999/xlink" width="40" zoomAndPan="magnify" viewBox="0 0 30 30.000001" height="40" preserveAspectRatio="xMidYMid meet" version="1.0"><defs><clipPath id="id1"><path d="M 23.347656 22.183594 L 29.515625 22.183594 L 29.515625 28.714844 L 23.347656 28.714844 Z M 23.347656 22.183594 " clip-rule="nonzero"/></clipPath></defs><path fill="#000000" d="M 18.992188 20.777344 C 19.113281 20.898438 19.269531 20.957031 19.460938 20.957031 C 19.652344 20.957031 19.808594 20.898438 19.929688 20.777344 L 21.261719 19.535156 C 21.402344 19.394531 21.472656 19.238281 21.472656 19.066406 C 21.472656 18.894531 21.402344 18.738281 21.261719 18.597656 L 16.664062 14.003906 C 16.765625 13.71875 16.84375 13.449219 16.90625 13.183594 C 16.964844 12.921875 16.996094 12.652344 16.996094 12.367188 C 16.996094 11.199219 16.582031 10.203125 15.757812 9.375 C 14.929688 8.546875 13.929688 8.136719 12.761719 8.136719 C 12.417969 8.136719 12.078125 8.183594 11.734375 8.285156 C 11.390625 8.386719 11.058594 8.527344 10.734375 8.710938 L 13.398438 11.339844 L 11.765625 12.882812 L 9.164062 10.3125 C 8.980469 10.636719 8.847656 10.96875 8.753906 11.308594 C 8.664062 11.652344 8.617188 12.007812 8.617188 12.367188 C 8.617188 13.519531 9.023438 14.492188 9.828125 15.289062 C 10.636719 16.082031 11.613281 16.480469 12.761719 16.480469 C 13.042969 16.480469 13.320312 16.457031 13.59375 16.40625 C 13.867188 16.355469 14.144531 16.28125 14.425781 16.179688 Z M 15 26.613281 C 13.285156 26.613281 11.695312 26.304688 10.222656 25.691406 C 8.75 25.074219 7.46875 24.222656 6.382812 23.136719 C 5.292969 22.046875 4.441406 20.765625 3.824219 19.292969 C 3.210938 17.824219 2.902344 16.230469 2.902344 14.515625 C 2.902344 12.824219 3.210938 11.238281 3.824219 9.769531 C 4.441406 8.296875 5.292969 7.015625 6.382812 5.925781 C 7.46875 4.839844 8.75 3.980469 10.222656 3.355469 C 11.695312 2.730469 13.285156 2.417969 15 2.417969 C 16.695312 2.417969 18.277344 2.730469 19.746094 3.355469 C 21.21875 3.980469 22.5 4.839844 23.589844 5.925781 C 24.675781 7.015625 25.535156 8.296875 26.160156 9.769531 C 26.785156 11.238281 27.097656 12.824219 27.097656 14.515625 C 27.097656 16.230469 26.785156 17.824219 26.160156 19.292969 C 25.535156 20.765625 24.675781 22.046875 23.589844 23.136719 C 22.5 24.222656 21.21875 25.074219 19.746094 25.691406 C 18.277344 26.304688 16.695312 26.613281 15 26.613281 Z M 15 14.515625 Z M 15 24.796875 C 17.921875 24.796875 20.367188 23.816406 22.332031 21.851562 C 24.300781 19.882812 25.28125 17.441406 25.28125 14.515625 C 25.28125 11.59375 24.300781 9.148438 22.332031 7.183594 C 20.367188 5.214844 17.921875 4.234375 15 4.234375 C 12.078125 4.234375 9.632812 5.214844 7.667969 7.183594 C 5.699219 9.148438 4.71875 11.59375 4.71875 14.515625 C 4.71875 17.441406 5.699219 19.882812 7.667969 21.851562 C 9.632812 23.816406 12.078125 24.796875 15 24.796875 Z M 15 24.796875 " fill-opacity="1" fill-rule="nonzero"/><g clip-path="url(#id1)"><path fill="#ff1616" d="M 26.429688 26.808594 L 26.835938 26.808594 L 26.835938 25.679688 L 27.972656 25.679688 L 27.972656 25.269531 L 26.835938 25.269531 L 26.835938 24.085938 L 26.429688 24.085938 L 26.429688 25.269531 L 25.25 25.269531 L 25.25 25.679688 L 26.429688 25.679688 Z M 26.613281 28.171875 C 26.226562 28.171875 25.867188 28.101562 25.539062 27.960938 C 25.207031 27.824219 24.917969 27.632812 24.671875 27.386719 C 24.429688 27.144531 24.238281 26.855469 24.097656 26.523438 C 23.960938 26.191406 23.890625 25.832031 23.890625 25.449219 C 23.890625 25.066406 23.960938 24.710938 24.097656 24.378906 C 24.238281 24.050781 24.429688 23.761719 24.671875 23.515625 C 24.917969 23.269531 25.207031 23.078125 25.539062 22.9375 C 25.867188 22.796875 26.226562 22.726562 26.613281 22.726562 C 26.992188 22.726562 27.351562 22.796875 27.679688 22.9375 C 28.011719 23.078125 28.300781 23.269531 28.546875 23.515625 C 28.789062 23.761719 28.984375 24.050781 29.125 24.378906 C 29.265625 24.710938 29.335938 25.066406 29.335938 25.449219 C 29.335938 25.832031 29.265625 26.191406 29.125 26.523438 C 28.984375 26.855469 28.789062 27.144531 28.546875 27.386719 C 28.300781 27.632812 28.011719 27.824219 27.679688 27.960938 C 27.351562 28.101562 26.992188 28.171875 26.613281 28.171875 Z M 26.613281 25.449219 Z M 26.613281 27.761719 C 27.246094 27.761719 27.792969 27.535156 28.246094 27.082031 C 28.699219 26.628906 28.925781 26.082031 28.925781 25.449219 C 28.925781 24.8125 28.699219 24.269531 28.246094 23.816406 C 27.792969 23.363281 27.246094 23.136719 26.613281 23.136719 C 25.976562 23.136719 25.433594 23.363281 24.980469 23.816406 C 24.527344 24.269531 24.300781 24.8125 24.300781 25.449219 C 24.300781 26.082031 24.527344 26.628906 24.980469 27.082031 C 25.433594 27.535156 25.976562 27.761719 26.613281 27.761719 Z M 26.613281 27.761719 " fill-opacity="1" fill-rule="nonzero"/></g></svg>