<svg xmlns="http://www.w3.org/2000/svg" xmlns:xlink="http://www.w3.org/1999/xlink" width="794" zoomAndPan="magnify" viewBox="0 0 594.95996 842.24997" height="1123" preserveAspectRatio="xMidYMid meet" version="1.0"><path fill="#000000" d="M 221.9375 283.289062 C 222.929688 284.277344 224.207031 284.773438 225.769531 284.773438 C 227.335938 284.773438 228.613281 284.277344 229.601562 283.289062 L 240.480469 273.152344 C 241.636719 272 242.210938 270.722656 242.210938 269.320312 C 242.210938 267.917969 241.636719 266.640625 240.480469 265.488281 L 202.902344 227.910156 C 203.726562 225.601562 204.386719 223.375 204.878906 221.234375 C 205.375 219.089844 205.621094 216.867188 205.621094 214.558594 C 205.621094 205 202.242188 196.839844 195.484375 190.082031 C 188.726562 183.324219 180.570312 179.945312 171.011719 179.945312 C 168.207031 179.945312 165.40625 180.359375 162.605469 181.183594 C 159.800781 182.007812 157.082031 183.160156 154.445312 184.644531 L 176.203125 206.152344 L 162.851562 218.761719 L 141.589844 197.746094 C 140.105469 200.382812 138.996094 203.105469 138.253906 205.90625 C 137.511719 208.707031 137.140625 211.59375 137.140625 214.558594 C 137.140625 223.953125 140.4375 231.90625 147.027344 238.417969 C 153.621094 244.925781 161.617188 248.183594 171.011719 248.183594 C 173.316406 248.183594 175.585938 247.976562 177.808594 247.5625 C 180.035156 247.152344 182.300781 246.535156 184.609375 245.710938 Z M 189.304688 331.003906 C 175.296875 331.003906 162.273438 328.488281 150.242188 323.464844 C 138.210938 318.4375 127.746094 311.472656 118.84375 302.574219 C 109.945312 293.671875 102.980469 283.207031 97.953125 271.175781 C 92.925781 259.140625 90.414062 246.121094 90.414062 232.113281 C 90.414062 218.265625 92.925781 205.328125 97.953125 193.296875 C 102.980469 181.265625 109.945312 170.800781 118.84375 161.898438 C 127.746094 153 138.210938 145.996094 150.242188 140.886719 C 162.273438 135.777344 175.296875 133.222656 189.304688 133.222656 C 203.148438 133.222656 216.089844 135.777344 228.121094 140.886719 C 240.152344 145.996094 250.617188 153 259.519531 161.898438 C 268.417969 170.800781 275.421875 181.265625 280.53125 193.296875 C 285.640625 205.328125 288.195312 218.265625 288.195312 232.113281 C 288.195312 246.121094 285.640625 259.140625 280.53125 271.175781 C 275.421875 283.207031 268.417969 293.671875 259.519531 302.574219 C 250.617188 311.472656 240.152344 318.4375 228.121094 323.464844 C 216.089844 328.488281 203.148438 331.003906 189.304688 331.003906 Z M 189.304688 232.113281 Z M 189.304688 316.167969 C 213.203125 316.167969 233.1875 308.136719 249.257812 292.066406 C 265.328125 275.996094 273.363281 256.011719 273.363281 232.113281 C 273.363281 208.214844 265.328125 188.230469 249.257812 172.160156 C 233.1875 156.089844 213.203125 148.054688 189.304688 148.054688 C 165.40625 148.054688 145.421875 156.089844 129.351562 172.160156 C 113.28125 188.230469 105.246094 208.214844 105.246094 232.113281 C 105.246094 256.011719 113.28125 275.996094 129.351562 292.066406 C 145.421875 308.136719 165.40625 316.167969 189.304688 316.167969 Z M 189.304688 316.167969 " fill-opacity="1" fill-rule="nonzero"/><path fill="#ff1616" d="M 284.882812 307.070312 L 291.484375 307.070312 L 291.484375 288.816406 L 309.847656 288.816406 L 309.847656 282.214844 L 291.484375 282.214844 L 291.484375 263.082031 L 284.882812 263.082031 L 284.882812 282.214844 L 265.859375 282.214844 L 265.859375 288.816406 L 284.882812 288.816406 Z M 287.855469 329.0625 C 281.621094 329.0625 275.832031 327.945312 270.480469 325.707031 C 265.128906 323.472656 260.472656 320.375 256.511719 316.414062 C 252.554688 312.457031 249.457031 307.800781 247.222656 302.449219 C 244.984375 297.097656 243.867188 291.308594 243.867188 285.074219 C 243.867188 278.917969 244.984375 273.164062 247.222656 267.8125 C 249.457031 262.460938 252.554688 257.804688 256.511719 253.84375 C 260.472656 249.886719 265.128906 246.769531 270.480469 244.5 C 275.832031 242.226562 281.621094 241.089844 287.855469 241.089844 C 294.011719 241.089844 299.765625 242.226562 305.117188 244.5 C 310.46875 246.769531 315.125 249.886719 319.085938 253.84375 C 323.042969 257.804688 326.160156 262.460938 328.429688 267.8125 C 330.703125 273.164062 331.839844 278.917969 331.839844 285.074219 C 331.839844 291.308594 330.703125 297.097656 328.429688 302.449219 C 326.160156 307.800781 323.042969 312.457031 319.085938 316.414062 C 315.125 320.375 310.46875 323.472656 305.117188 325.707031 C 299.765625 327.945312 294.011719 329.0625 287.855469 329.0625 Z M 287.855469 285.074219 Z M 287.855469 322.464844 C 298.117188 322.464844 306.914062 318.796875 314.246094 311.46875 C 321.578125 304.136719 325.242188 295.339844 325.242188 285.074219 C 325.242188 274.8125 321.578125 266.015625 314.246094 258.683594 C 306.914062 251.351562 298.117188 247.6875 287.855469 247.6875 C 277.589844 247.6875 268.792969 251.351562 261.460938 258.683594 C 254.132812 266.015625 250.464844 274.8125 250.464844 285.074219 C 250.464844 295.339844 254.132812 304.136719 261.460938 311.46875 C 268.792969 318.796875 277.589844 322.464844 287.855469 322.464844 Z M 287.855469 322.464844 " fill-opacity="1" fill-rule="nonzero"/></svg>