<svg xmlns="http://www.w3.org/2000/svg" xmlns:xlink="http://www.w3.org/1999/xlink" width="48" zoomAndPan="magnify" viewBox="0 0 36 36.000001" height="48" preserveAspectRatio="xMidYMid meet" version="1.0"><path fill="#000000" d="M 20.191406 22.164062 C 20.332031 22.308594 20.519531 22.378906 20.746094 22.378906 C 20.972656 22.378906 21.15625 22.308594 21.296875 22.164062 L 22.871094 20.699219 C 23.039062 20.535156 23.121094 20.347656 23.121094 20.148438 C 23.121094 19.945312 23.039062 19.757812 22.871094 19.59375 L 17.441406 14.164062 C 17.558594 13.828125 17.65625 13.507812 17.726562 13.199219 C 17.796875 12.886719 17.832031 12.566406 17.832031 12.234375 C 17.832031 10.851562 17.34375 9.671875 16.367188 8.695312 C 15.390625 7.71875 14.210938 7.230469 12.832031 7.230469 C 12.425781 7.230469 12.023438 7.289062 11.617188 7.410156 C 11.210938 7.527344 10.820312 7.695312 10.4375 7.910156 L 13.582031 11.019531 L 11.652344 12.839844 L 8.578125 9.804688 C 8.367188 10.183594 8.203125 10.578125 8.097656 10.984375 C 7.992188 11.386719 7.9375 11.804688 7.9375 12.234375 C 7.9375 13.589844 8.414062 14.738281 9.367188 15.679688 C 10.320312 16.621094 11.472656 17.09375 12.832031 17.09375 C 13.164062 17.09375 13.492188 17.0625 13.8125 17.003906 C 14.136719 16.941406 14.460938 16.855469 14.796875 16.734375 Z M 15.476562 29.058594 C 13.449219 29.058594 11.570312 28.695312 9.832031 27.96875 C 8.089844 27.246094 6.578125 26.238281 5.292969 24.953125 C 4.007812 23.664062 3 22.152344 2.273438 20.414062 C 1.546875 18.675781 1.183594 16.792969 1.183594 14.769531 C 1.183594 12.769531 1.546875 10.898438 2.273438 9.160156 C 3 7.421875 4.007812 5.910156 5.292969 4.625 C 6.578125 3.335938 8.089844 2.324219 9.832031 1.585938 C 11.570312 0.847656 13.449219 0.480469 15.476562 0.480469 C 17.476562 0.480469 19.34375 0.847656 21.085938 1.585938 C 22.824219 2.324219 24.335938 3.335938 25.621094 4.625 C 26.90625 5.910156 27.917969 7.421875 28.65625 9.160156 C 29.398438 10.898438 29.765625 12.769531 29.765625 14.769531 C 29.765625 16.792969 29.398438 18.675781 28.65625 20.414062 C 27.917969 22.152344 26.90625 23.664062 25.621094 24.953125 C 24.335938 26.238281 22.824219 27.246094 21.085938 27.96875 C 19.34375 28.695312 17.476562 29.058594 15.476562 29.058594 Z M 15.476562 14.769531 Z M 15.476562 26.917969 C 18.929688 26.917969 21.816406 25.753906 24.140625 23.433594 C 26.460938 21.109375 27.621094 18.222656 27.621094 14.769531 C 27.621094 11.316406 26.460938 8.429688 24.140625 6.105469 C 21.816406 3.785156 18.929688 2.621094 15.476562 2.621094 C 12.023438 2.621094 9.132812 3.785156 6.8125 6.105469 C 4.488281 8.429688 3.328125 11.316406 3.328125 14.769531 C 3.328125 18.222656 4.488281 21.109375 6.8125 23.433594 C 9.132812 25.753906 12.023438 26.917969 15.476562 26.917969 Z M 15.476562 26.917969 " fill-opacity="1" fill-rule="nonzero"/><path fill="#ff1616" d="M 28.800781 34.6875 C 27.9375 34.6875 27.136719 34.53125 26.398438 34.222656 C 25.65625 33.914062 25.015625 33.484375 24.46875 32.9375 C 23.921875 32.390625 23.492188 31.746094 23.183594 31.007812 C 22.875 30.265625 22.71875 29.46875 22.71875 28.605469 C 22.71875 27.753906 22.875 26.957031 23.183594 26.21875 C 23.492188 25.480469 23.921875 24.835938 24.46875 24.289062 C 25.015625 23.742188 25.65625 23.308594 26.398438 22.996094 C 27.136719 22.679688 27.9375 22.523438 28.800781 22.523438 C 29.652344 22.523438 30.445312 22.679688 31.1875 22.996094 C 31.925781 23.308594 32.570312 23.742188 33.117188 24.289062 C 33.664062 24.835938 34.09375 25.480469 34.410156 26.21875 C 34.722656 26.957031 34.882812 27.753906 34.882812 28.605469 C 34.882812 29.46875 34.722656 30.265625 34.410156 31.007812 C 34.09375 31.746094 33.664062 32.390625 33.117188 32.9375 C 32.570312 33.484375 31.925781 33.914062 31.1875 34.222656 C 30.445312 34.53125 29.652344 34.6875 28.800781 34.6875 Z M 28.390625 31.644531 L 29.300781 31.644531 L 29.300781 29.121094 L 31.839844 29.121094 L 31.839844 28.210938 L 29.300781 28.210938 L 29.300781 25.566406 L 28.390625 25.566406 L 28.390625 28.210938 L 25.757812 28.210938 L 25.757812 29.121094 L 28.390625 29.121094 Z M 28.390625 31.644531 " fill-opacity="1" fill-rule="nonzero"/></svg>