<svg xmlns="http://www.w3.org/2000/svg" xmlns:xlink="http://www.w3.org/1999/xlink" width="794" zoomAndPan="magnify" viewBox="0 0 594.95996 842.24997" height="1123" preserveAspectRatio="xMidYMid meet" version="1.0"><defs><clipPath id="id1"><path d="M 0.246094 0 L 594.675781 0 L 594.675781 841.5 L 0.246094 841.5 Z M 0.246094 0 " clip-rule="nonzero"/></clipPath><clipPath id="id2"><path d="M 0.246094 0 L 594.675781 0 L 594.675781 841 L 0.246094 841 Z M 0.246094 0 " clip-rule="nonzero"/></clipPath><clipPath id="id3"><path d="M 0.246094 0 L 594.675781 0 L 594.675781 840.792969 L 0.246094 840.792969 Z M 0.246094 0 " clip-rule="nonzero"/></clipPath></defs><g clip-path="url(#id1)"><path fill="#ffffff" d="M 0.246094 0 L 594.714844 0 L 594.714844 847.53125 L 0.246094 847.53125 Z M 0.246094 0 " fill-opacity="1" fill-rule="nonzero"/></g><g clip-path="url(#id2)"><path fill="#ffffff" d="M 0.246094 0 L 594.714844 0 L 594.714844 840.792969 L 0.246094 840.792969 Z M 0.246094 0 " fill-opacity="1" fill-rule="nonzero"/></g><g clip-path="url(#id3)"><path fill="#ffffff" d="M 0.246094 0 L 594.714844 0 L 594.714844 840.792969 L 0.246094 840.792969 Z M 0.246094 0 " fill-opacity="1" fill-rule="nonzero"/><path fill="#ffffff" d="M 0.246094 0 L 594.714844 0 L 594.714844 840.792969 L 0.246094 840.792969 Z M 0.246094 0 " fill-opacity="1" fill-rule="nonzero"/></g><path fill="#000000" d="M 143.183594 318.863281 C 143.660156 319.335938 144.273438 319.574219 145.023438 319.574219 C 145.773438 319.574219 146.386719 319.335938 146.859375 318.863281 L 152.074219 314 C 152.628906 313.449219 152.90625 312.835938 152.90625 312.164062 C 152.90625 311.492188 152.628906 310.878906 152.074219 310.324219 L 134.058594 292.308594 C 134.453125 291.199219 134.769531 290.132812 135.003906 289.105469 C 135.242188 288.078125 135.359375 287.011719 135.359375 285.90625 C 135.359375 281.320312 133.742188 277.410156 130.5 274.171875 C 127.261719 270.929688 123.347656 269.308594 118.765625 269.308594 C 117.421875 269.308594 116.078125 269.507812 114.734375 269.902344 C 113.390625 270.296875 112.085938 270.851562 110.824219 271.5625 L 121.253906 281.875 L 114.851562 287.921875 L 104.65625 277.84375 C 103.945312 279.109375 103.414062 280.414062 103.058594 281.757812 C 102.703125 283.101562 102.523438 284.484375 102.523438 285.90625 C 102.523438 290.410156 104.105469 294.222656 107.265625 297.34375 C 110.425781 300.46875 114.261719 302.027344 118.765625 302.027344 C 119.871094 302.027344 120.957031 301.929688 122.023438 301.730469 C 123.089844 301.535156 124.179688 301.238281 125.285156 300.84375 Z M 127.539062 341.742188 C 120.820312 341.742188 114.578125 340.535156 108.808594 338.125 C 103.039062 335.714844 98.019531 332.375 93.75 328.109375 C 89.484375 323.839844 86.144531 318.820312 83.734375 313.050781 C 81.324219 307.285156 80.121094 301.039062 80.121094 294.324219 C 80.121094 287.683594 81.324219 281.480469 83.734375 275.710938 C 86.144531 269.941406 89.484375 264.921875 93.75 260.65625 C 98.019531 256.386719 103.039062 253.03125 108.808594 250.578125 C 114.578125 248.128906 120.820312 246.90625 127.539062 246.90625 C 134.175781 246.90625 140.378906 248.128906 146.148438 250.578125 C 151.917969 253.03125 156.9375 256.386719 161.203125 260.65625 C 165.472656 264.921875 168.832031 269.941406 171.28125 275.710938 C 173.730469 281.480469 174.953125 287.683594 174.953125 294.324219 C 174.953125 301.039062 173.730469 307.285156 171.28125 313.050781 C 168.832031 318.820312 165.472656 323.839844 161.203125 328.109375 C 156.9375 332.375 151.917969 335.714844 146.148438 338.125 C 140.378906 340.535156 134.175781 341.742188 127.539062 341.742188 Z M 127.539062 294.324219 Z M 127.539062 334.628906 C 138.996094 334.628906 148.578125 330.773438 156.285156 323.070312 C 163.988281 315.363281 167.84375 305.78125 167.84375 294.324219 C 167.84375 282.863281 163.988281 273.28125 156.285156 265.574219 C 148.578125 257.871094 138.996094 254.015625 127.539062 254.015625 C 116.078125 254.015625 106.496094 257.871094 98.789062 265.574219 C 91.085938 273.28125 87.230469 282.863281 87.230469 294.324219 C 87.230469 305.78125 91.085938 315.363281 98.789062 323.070312 C 106.496094 330.773438 116.078125 334.628906 127.539062 334.628906 Z M 127.539062 334.628906 " fill-opacity="1" fill-rule="nonzero"/><path fill="#ff1616" d="M 175.789062 320.792969 L 179.34375 320.792969 L 179.34375 310.953125 L 189.242188 310.953125 L 189.242188 307.398438 L 179.34375 307.398438 L 179.34375 297.082031 L 175.789062 297.082031 L 175.789062 307.398438 L 165.535156 307.398438 L 165.535156 310.953125 L 175.789062 310.953125 Z M 177.386719 332.648438 C 174.03125 332.648438 170.90625 332.042969 168.023438 330.839844 C 165.140625 329.632812 162.628906 327.964844 160.496094 325.832031 C 158.363281 323.695312 156.691406 321.1875 155.488281 318.304688 C 154.28125 315.417969 153.679688 312.296875 153.679688 308.9375 C 153.679688 305.617188 154.28125 302.515625 155.488281 299.632812 C 156.691406 296.746094 158.363281 294.238281 160.496094 292.105469 C 162.628906 289.972656 165.140625 288.292969 168.023438 287.066406 C 170.90625 285.839844 174.03125 285.230469 177.386719 285.230469 C 180.707031 285.230469 183.808594 285.839844 186.695312 287.066406 C 189.578125 288.292969 192.089844 289.972656 194.222656 292.105469 C 196.355469 294.238281 198.035156 296.746094 199.261719 299.632812 C 200.484375 302.515625 201.097656 305.617188 201.097656 308.9375 C 201.097656 312.296875 200.484375 315.417969 199.261719 318.304688 C 198.035156 321.1875 196.355469 323.695312 194.222656 325.832031 C 192.089844 327.964844 189.578125 329.632812 186.695312 330.839844 C 183.808594 332.042969 180.707031 332.648438 177.386719 332.648438 Z M 177.386719 308.9375 Z M 177.386719 329.089844 C 182.921875 329.089844 187.664062 327.113281 191.613281 323.164062 C 195.566406 319.210938 197.542969 314.46875 197.542969 308.9375 C 197.542969 303.40625 195.566406 298.664062 191.613281 294.710938 C 187.664062 290.761719 182.921875 288.785156 177.386719 288.785156 C 171.855469 288.785156 167.113281 290.761719 163.164062 294.710938 C 159.210938 298.664062 157.234375 303.40625 157.234375 308.9375 C 157.234375 314.46875 159.210938 319.210938 163.164062 323.164062 C 167.113281 327.113281 171.855469 329.089844 177.386719 329.089844 Z M 177.386719 329.089844 " fill-opacity="1" fill-rule="nonzero"/></svg>