<svg xmlns="http://www.w3.org/2000/svg" xmlns:xlink="http://www.w3.org/1999/xlink" width="48" zoomAndPan="magnify" viewBox="0 0 36 36.000001" height="48" preserveAspectRatio="xMidYMid meet" version="1.0"><path fill="#000000" d="M 1.507812 26.855469 L 1.507812 18.234375 L 8.484375 18.234375 L 8.484375 19.875 L 10.949219 19.875 L 10.949219 18.234375 L 24.90625 18.234375 L 24.90625 19.875 L 27.367188 19.875 L 27.367188 18.234375 L 34.347656 18.234375 L 34.347656 26.855469 Z M 1.507812 9.613281 C 1.507812 8.957031 1.753906 8.382812 2.246094 7.890625 C 2.738281 7.398438 3.3125 7.152344 3.972656 7.152344 L 9.71875 7.152344 L 9.71875 3.046875 C 9.71875 2.390625 9.964844 1.816406 10.457031 1.324219 C 10.949219 0.828125 11.523438 0.582031 12.179688 0.582031 L 23.671875 0.582031 C 24.332031 0.582031 24.90625 0.828125 25.398438 1.324219 C 25.890625 1.816406 26.136719 2.390625 26.136719 3.046875 L 26.136719 7.152344 L 31.882812 7.152344 C 32.539062 7.152344 33.113281 7.398438 33.605469 7.890625 C 34.101562 8.382812 34.347656 8.957031 34.347656 9.613281 L 34.347656 17.003906 L 27.367188 17.003906 L 27.367188 14.128906 L 24.90625 14.128906 L 24.90625 17.003906 L 10.949219 17.003906 L 10.949219 14.128906 L 8.484375 14.128906 L 8.484375 17.003906 L 1.507812 17.003906 Z M 12.179688 7.152344 L 23.671875 7.152344 L 23.671875 3.046875 L 12.179688 3.046875 Z M 12.179688 7.152344 " fill-opacity="1" fill-rule="nonzero"/><path fill="#ff1616" d="M 29.042969 34.464844 C 28.222656 34.464844 27.464844 34.316406 26.761719 34.023438 C 26.058594 33.730469 25.445312 33.324219 24.925781 32.804688 C 24.40625 32.285156 24 31.671875 23.707031 30.96875 C 23.414062 30.265625 23.265625 29.507812 23.265625 28.6875 C 23.265625 27.878906 23.414062 27.121094 23.707031 26.421875 C 24 25.71875 24.40625 25.105469 24.925781 24.585938 C 25.445312 24.066406 26.058594 23.65625 26.761719 23.359375 C 27.464844 23.058594 28.222656 22.910156 29.042969 22.910156 C 29.851562 22.910156 30.609375 23.058594 31.308594 23.359375 C 32.011719 23.65625 32.625 24.066406 33.144531 24.585938 C 33.664062 25.105469 34.074219 25.71875 34.371094 26.421875 C 34.671875 27.121094 34.820312 27.878906 34.820312 28.6875 C 34.820312 29.507812 34.671875 30.265625 34.371094 30.96875 C 34.074219 31.671875 33.664062 32.285156 33.144531 32.804688 C 32.625 33.324219 32.011719 33.730469 31.308594 34.023438 C 30.609375 34.316406 29.851562 34.464844 29.042969 34.464844 Z M 28.652344 31.574219 L 29.519531 31.574219 L 29.519531 29.179688 L 31.929688 29.179688 L 31.929688 28.3125 L 29.519531 28.3125 L 29.519531 25.800781 L 28.652344 25.800781 L 28.652344 28.3125 L 26.15625 28.3125 L 26.15625 29.179688 L 28.652344 29.179688 Z M 28.652344 31.574219 " fill-opacity="1" fill-rule="nonzero"/></svg>