<svg xmlns="http://www.w3.org/2000/svg" xmlns:xlink="http://www.w3.org/1999/xlink" width="48" zoomAndPan="magnify" viewBox="0 0 36 36.000001" height="48" preserveAspectRatio="xMidYMid meet" version="1.0"><defs><clipPath id="id1"><path d="M 23 23 L 35.511719 23 L 35.511719 35 L 23 35 Z M 23 23 " clip-rule="nonzero"/></clipPath></defs><path fill="#000000" d="M 1.507812 26.855469 L 1.507812 18.234375 L 8.484375 18.234375 L 8.484375 19.875 L 10.949219 19.875 L 10.949219 18.234375 L 24.90625 18.234375 L 24.90625 19.875 L 27.367188 19.875 L 27.367188 18.234375 L 34.347656 18.234375 L 34.347656 26.855469 Z M 1.507812 9.613281 C 1.507812 8.957031 1.753906 8.382812 2.246094 7.890625 C 2.738281 7.398438 3.3125 7.152344 3.972656 7.152344 L 9.71875 7.152344 L 9.71875 3.046875 C 9.71875 2.390625 9.964844 1.816406 10.457031 1.324219 C 10.949219 0.828125 11.523438 0.582031 12.179688 0.582031 L 23.671875 0.582031 C 24.332031 0.582031 24.90625 0.828125 25.398438 1.324219 C 25.890625 1.816406 26.136719 2.390625 26.136719 3.046875 L 26.136719 7.152344 L 31.882812 7.152344 C 32.539062 7.152344 33.113281 7.398438 33.605469 7.890625 C 34.101562 8.382812 34.347656 8.957031 34.347656 9.613281 L 34.347656 17.003906 L 27.367188 17.003906 L 27.367188 14.128906 L 24.90625 14.128906 L 24.90625 17.003906 L 10.949219 17.003906 L 10.949219 14.128906 L 8.484375 14.128906 L 8.484375 17.003906 L 1.507812 17.003906 Z M 12.179688 7.152344 L 23.671875 7.152344 L 23.671875 3.046875 L 12.179688 3.046875 Z M 12.179688 7.152344 " fill-opacity="1" fill-rule="nonzero"/><g clip-path="url(#id1)"><path fill="#00c2cb" d="M 27.910156 34.804688 L 27.621094 32.984375 C 27.4375 32.917969 27.246094 32.828125 27.042969 32.710938 C 26.839844 32.597656 26.664062 32.476562 26.507812 32.351562 L 24.804688 33.128906 L 23.460938 30.761719 L 25.019531 29.621094 C 25 29.535156 24.988281 29.433594 24.984375 29.324219 C 24.980469 29.214844 24.976562 29.113281 24.976562 29.027344 C 24.976562 28.941406 24.980469 28.84375 24.984375 28.730469 C 24.988281 28.621094 25 28.523438 25.019531 28.4375 L 23.460938 27.296875 L 24.804688 24.925781 L 26.507812 25.707031 C 26.664062 25.582031 26.839844 25.460938 27.042969 25.34375 C 27.246094 25.230469 27.4375 25.144531 27.621094 25.085938 L 27.910156 23.25 L 30.566406 23.25 L 30.855469 25.070312 C 31.039062 25.136719 31.234375 25.226562 31.441406 25.339844 C 31.648438 25.449219 31.824219 25.570312 31.96875 25.707031 L 33.671875 24.925781 L 35.015625 27.296875 L 33.453125 28.40625 C 33.472656 28.503906 33.488281 28.605469 33.492188 28.71875 C 33.496094 28.828125 33.5 28.933594 33.5 29.027344 C 33.5 29.125 33.496094 29.226562 33.492188 29.332031 C 33.488281 29.4375 33.472656 29.539062 33.453125 29.636719 L 35.015625 30.761719 L 33.671875 33.128906 L 31.96875 32.351562 C 31.8125 32.476562 31.636719 32.597656 31.441406 32.71875 C 31.242188 32.839844 31.046875 32.929688 30.855469 32.984375 L 30.566406 34.804688 Z M 29.238281 30.90625 C 29.757812 30.90625 30.199219 30.722656 30.566406 30.355469 C 30.933594 29.992188 31.117188 29.546875 31.117188 29.027344 C 31.117188 28.507812 30.933594 28.066406 30.566406 27.699219 C 30.199219 27.332031 29.757812 27.152344 29.238281 27.152344 C 28.71875 27.152344 28.273438 27.332031 27.910156 27.699219 C 27.542969 28.066406 27.359375 28.507812 27.359375 29.027344 C 27.359375 29.546875 27.542969 29.992188 27.910156 30.355469 C 28.273438 30.722656 28.71875 30.90625 29.238281 30.90625 Z M 29.238281 30.90625 " fill-opacity="1" fill-rule="nonzero"/></g></svg>