<svg xmlns="http://www.w3.org/2000/svg" xmlns:xlink="http://www.w3.org/1999/xlink" width="48" zoomAndPan="magnify" viewBox="0 0 36 36.000001" height="48" preserveAspectRatio="xMidYMid meet" version="1.0"><defs><clipPath id="id1"><path d="M 23 23 L 35.511719 23 L 35.511719 35 L 23 35 Z M 23 23 " clip-rule="nonzero"/></clipPath></defs><path fill="#000000" d="M 20.191406 22.164062 C 20.332031 22.308594 20.519531 22.378906 20.746094 22.378906 C 20.972656 22.378906 21.15625 22.308594 21.296875 22.164062 L 22.871094 20.699219 C 23.039062 20.535156 23.121094 20.347656 23.121094 20.148438 C 23.121094 19.945312 23.039062 19.757812 22.871094 19.59375 L 17.441406 14.164062 C 17.558594 13.828125 17.65625 13.507812 17.726562 13.199219 C 17.796875 12.886719 17.832031 12.566406 17.832031 12.234375 C 17.832031 10.851562 17.34375 9.671875 16.367188 8.695312 C 15.390625 7.71875 14.210938 7.230469 12.832031 7.230469 C 12.425781 7.230469 12.023438 7.289062 11.617188 7.410156 C 11.210938 7.527344 10.820312 7.695312 10.4375 7.910156 L 13.582031 11.019531 L 11.652344 12.839844 L 8.578125 9.804688 C 8.367188 10.183594 8.203125 10.578125 8.097656 10.984375 C 7.992188 11.386719 7.9375 11.804688 7.9375 12.234375 C 7.9375 13.589844 8.414062 14.738281 9.367188 15.679688 C 10.320312 16.621094 11.472656 17.09375 12.832031 17.09375 C 13.164062 17.09375 13.492188 17.0625 13.8125 17.003906 C 14.136719 16.941406 14.460938 16.855469 14.796875 16.734375 Z M 15.476562 29.058594 C 13.449219 29.058594 11.570312 28.695312 9.832031 27.96875 C 8.089844 27.246094 6.578125 26.238281 5.292969 24.953125 C 4.007812 23.664062 3 22.152344 2.273438 20.414062 C 1.546875 18.675781 1.183594 16.792969 1.183594 14.769531 C 1.183594 12.769531 1.546875 10.898438 2.273438 9.160156 C 3 7.421875 4.007812 5.910156 5.292969 4.625 C 6.578125 3.335938 8.089844 2.324219 9.832031 1.585938 C 11.570312 0.847656 13.449219 0.480469 15.476562 0.480469 C 17.476562 0.480469 19.34375 0.847656 21.085938 1.585938 C 22.824219 2.324219 24.335938 3.335938 25.621094 4.625 C 26.90625 5.910156 27.917969 7.421875 28.65625 9.160156 C 29.398438 10.898438 29.765625 12.769531 29.765625 14.769531 C 29.765625 16.792969 29.398438 18.675781 28.65625 20.414062 C 27.917969 22.152344 26.90625 23.664062 25.621094 24.953125 C 24.335938 26.238281 22.824219 27.246094 21.085938 27.96875 C 19.34375 28.695312 17.476562 29.058594 15.476562 29.058594 Z M 15.476562 14.769531 Z M 15.476562 26.917969 C 18.929688 26.917969 21.816406 25.753906 24.140625 23.433594 C 26.460938 21.109375 27.621094 18.222656 27.621094 14.769531 C 27.621094 11.316406 26.460938 8.429688 24.140625 6.105469 C 21.816406 3.785156 18.929688 2.621094 15.476562 2.621094 C 12.023438 2.621094 9.132812 3.785156 6.8125 6.105469 C 4.488281 8.429688 3.328125 11.316406 3.328125 14.769531 C 3.328125 18.222656 4.488281 21.109375 6.8125 23.433594 C 9.132812 25.753906 12.023438 26.917969 15.476562 26.917969 Z M 15.476562 26.917969 " fill-opacity="1" fill-rule="nonzero"/><g clip-path="url(#id1)"><path fill="#00c2cb" d="M 28.273438 34.601562 L 27.984375 32.78125 C 27.800781 32.714844 27.609375 32.621094 27.40625 32.507812 C 27.207031 32.390625 27.027344 32.269531 26.875 32.144531 L 25.167969 32.925781 L 23.824219 30.558594 L 25.386719 29.417969 C 25.367188 29.328125 25.355469 29.230469 25.347656 29.121094 C 25.34375 29.007812 25.34375 28.910156 25.34375 28.824219 C 25.34375 28.738281 25.34375 28.640625 25.347656 28.527344 C 25.355469 28.417969 25.367188 28.320312 25.386719 28.230469 L 23.824219 27.089844 L 25.167969 24.722656 L 26.875 25.503906 C 27.027344 25.378906 27.207031 25.257812 27.40625 25.140625 C 27.609375 25.027344 27.800781 24.9375 27.984375 24.882812 L 28.273438 23.046875 L 30.929688 23.046875 L 31.21875 24.867188 C 31.402344 24.933594 31.597656 25.023438 31.804688 25.132812 C 32.011719 25.246094 32.1875 25.367188 32.332031 25.503906 L 34.035156 24.722656 L 35.378906 27.089844 L 33.820312 28.203125 C 33.839844 28.300781 33.851562 28.402344 33.855469 28.515625 C 33.859375 28.625 33.863281 28.726562 33.863281 28.824219 C 33.863281 28.921875 33.859375 29.023438 33.855469 29.128906 C 33.851562 29.234375 33.839844 29.335938 33.820312 29.429688 L 35.378906 30.558594 L 34.035156 32.925781 L 32.332031 32.144531 C 32.179688 32.269531 32.003906 32.394531 31.804688 32.515625 C 31.609375 32.632812 31.414062 32.722656 31.21875 32.78125 L 30.929688 34.601562 Z M 29.601562 30.703125 C 30.121094 30.703125 30.566406 30.519531 30.929688 30.152344 C 31.296875 29.789062 31.480469 29.34375 31.480469 28.824219 C 31.480469 28.304688 31.296875 27.863281 30.929688 27.496094 C 30.566406 27.128906 30.121094 26.945312 29.601562 26.945312 C 29.082031 26.945312 28.640625 27.128906 28.273438 27.496094 C 27.90625 27.863281 27.726562 28.304688 27.726562 28.824219 C 27.726562 29.34375 27.90625 29.789062 28.273438 30.152344 C 28.640625 30.519531 29.082031 30.703125 29.601562 30.703125 Z M 29.601562 30.703125 " fill-opacity="1" fill-rule="nonzero"/></g></svg>