<svg xmlns="http://www.w3.org/2000/svg" xmlns:xlink="http://www.w3.org/1999/xlink" width="48" zoomAndPan="magnify" viewBox="0 0 36 36.000001" height="48" preserveAspectRatio="xMidYMid meet" version="1.0"><defs><clipPath id="id1"><path d="M 23 23 L 35.511719 23 L 35.511719 35 L 23 35 Z M 23 23 " clip-rule="nonzero"/></clipPath></defs><path fill="#000000" d="M 15.300781 12.875 C 13.460938 12.875 11.957031 12.289062 10.785156 11.117188 C 9.613281 9.949219 9.027344 8.441406 9.027344 6.601562 C 9.027344 4.765625 9.613281 3.257812 10.785156 2.089844 C 11.957031 0.917969 13.460938 0.332031 15.300781 0.332031 C 17.140625 0.332031 18.644531 0.917969 19.816406 2.089844 C 20.984375 3.257812 21.570312 4.765625 21.570312 6.601562 C 21.570312 8.441406 20.984375 9.949219 19.816406 11.117188 C 18.644531 12.289062 17.140625 12.875 15.300781 12.875 Z M 1.921875 26.292969 L 1.921875 22.363281 C 1.921875 21.304688 2.1875 20.398438 2.714844 19.648438 C 3.246094 18.894531 3.929688 18.324219 4.765625 17.933594 C 6.632812 17.097656 8.421875 16.46875 10.136719 16.050781 C 11.851562 15.632812 13.570312 15.425781 15.300781 15.425781 C 17.027344 15.425781 18.742188 15.640625 20.441406 16.074219 C 22.140625 16.503906 23.925781 17.125 25.792969 17.933594 C 26.65625 18.324219 27.355469 18.894531 27.882812 19.648438 C 28.414062 20.398438 28.679688 21.304688 28.679688 22.363281 L 28.679688 26.292969 Z M 1.921875 26.292969 " fill-opacity="1" fill-rule="nonzero"/><g clip-path="url(#id1)"><path fill="#00c2cb" d="M 27.910156 34.804688 L 27.621094 32.984375 C 27.4375 32.917969 27.246094 32.828125 27.042969 32.710938 C 26.839844 32.597656 26.664062 32.476562 26.507812 32.351562 L 24.804688 33.128906 L 23.460938 30.761719 L 25.019531 29.621094 C 25 29.535156 24.988281 29.433594 24.984375 29.324219 C 24.980469 29.214844 24.976562 29.113281 24.976562 29.027344 C 24.976562 28.941406 24.980469 28.84375 24.984375 28.730469 C 24.988281 28.621094 25 28.523438 25.019531 28.4375 L 23.460938 27.296875 L 24.804688 24.925781 L 26.507812 25.707031 C 26.664062 25.582031 26.839844 25.460938 27.042969 25.34375 C 27.246094 25.230469 27.4375 25.144531 27.621094 25.085938 L 27.910156 23.25 L 30.566406 23.25 L 30.855469 25.070312 C 31.039062 25.136719 31.234375 25.226562 31.441406 25.339844 C 31.648438 25.449219 31.824219 25.570312 31.96875 25.707031 L 33.671875 24.925781 L 35.015625 27.296875 L 33.453125 28.40625 C 33.472656 28.503906 33.488281 28.605469 33.492188 28.71875 C 33.496094 28.828125 33.5 28.933594 33.5 29.027344 C 33.5 29.125 33.496094 29.226562 33.492188 29.332031 C 33.488281 29.4375 33.472656 29.539062 33.453125 29.636719 L 35.015625 30.761719 L 33.671875 33.128906 L 31.96875 32.351562 C 31.8125 32.476562 31.636719 32.597656 31.441406 32.71875 C 31.242188 32.839844 31.046875 32.929688 30.855469 32.984375 L 30.566406 34.804688 Z M 29.238281 30.90625 C 29.757812 30.90625 30.199219 30.722656 30.566406 30.355469 C 30.933594 29.992188 31.117188 29.546875 31.117188 29.027344 C 31.117188 28.507812 30.933594 28.066406 30.566406 27.699219 C 30.199219 27.332031 29.757812 27.152344 29.238281 27.152344 C 28.71875 27.152344 28.273438 27.332031 27.910156 27.699219 C 27.542969 28.066406 27.359375 28.507812 27.359375 29.027344 C 27.359375 29.546875 27.542969 29.992188 27.910156 30.355469 C 28.273438 30.722656 28.71875 30.90625 29.238281 30.90625 Z M 29.238281 30.90625 " fill-opacity="1" fill-rule="nonzero"/></g></svg>