<svg xmlns="http://www.w3.org/2000/svg" xmlns:xlink="http://www.w3.org/1999/xlink" width="48" zoomAndPan="magnify" viewBox="0 0 36 36.000001" height="48" preserveAspectRatio="xMidYMid meet" version="1.0"><defs><clipPath id="id1"><path d="M 23 22 L 35.511719 22 L 35.511719 35 L 23 35 Z M 23 22 " clip-rule="nonzero"/></clipPath></defs><path fill="#000000" d="M 15.300781 12.875 C 13.460938 12.875 11.957031 12.289062 10.785156 11.117188 C 9.613281 9.949219 9.027344 8.441406 9.027344 6.601562 C 9.027344 4.765625 9.613281 3.257812 10.785156 2.089844 C 11.957031 0.917969 13.460938 0.332031 15.300781 0.332031 C 17.140625 0.332031 18.644531 0.917969 19.816406 2.089844 C 20.984375 3.257812 21.570312 4.765625 21.570312 6.601562 C 21.570312 8.441406 20.984375 9.949219 19.816406 11.117188 C 18.644531 12.289062 17.140625 12.875 15.300781 12.875 Z M 1.921875 26.292969 L 1.921875 22.363281 C 1.921875 21.304688 2.1875 20.398438 2.714844 19.648438 C 3.246094 18.894531 3.929688 18.324219 4.765625 17.933594 C 6.632812 17.097656 8.421875 16.46875 10.136719 16.050781 C 11.851562 15.632812 13.570312 15.425781 15.300781 15.425781 C 17.027344 15.425781 18.742188 15.640625 20.441406 16.074219 C 22.140625 16.503906 23.925781 17.125 25.792969 17.933594 C 26.65625 18.324219 27.355469 18.894531 27.882812 19.648438 C 28.414062 20.398438 28.679688 21.304688 28.679688 22.363281 L 28.679688 26.292969 Z M 1.921875 26.292969 " fill-opacity="1" fill-rule="nonzero"/><g clip-path="url(#id1)"><path fill="#ff1616" d="M 29.285156 34.027344 C 28.46875 34.027344 27.707031 33.878906 27.003906 33.585938 C 26.300781 33.292969 25.691406 32.886719 25.167969 32.367188 C 24.648438 31.847656 24.242188 31.234375 23.949219 30.53125 C 23.65625 29.828125 23.507812 29.066406 23.507812 28.25 C 23.507812 27.441406 23.65625 26.683594 23.949219 25.980469 C 24.242188 25.28125 24.648438 24.667969 25.167969 24.148438 C 25.691406 23.628906 26.300781 23.21875 27.003906 22.921875 C 27.707031 22.621094 28.46875 22.472656 29.285156 22.472656 C 30.09375 22.472656 30.851562 22.621094 31.554688 22.921875 C 32.257812 23.21875 32.867188 23.628906 33.386719 24.148438 C 33.90625 24.667969 34.316406 25.28125 34.613281 25.980469 C 34.914062 26.683594 35.0625 27.441406 35.0625 28.25 C 35.0625 29.066406 34.914062 29.828125 34.613281 30.53125 C 34.316406 31.234375 33.90625 31.847656 33.386719 32.367188 C 32.867188 32.886719 32.257812 33.292969 31.554688 33.585938 C 30.851562 33.878906 30.09375 34.027344 29.285156 34.027344 Z M 28.894531 31.136719 L 29.761719 31.136719 L 29.761719 28.742188 L 32.175781 28.742188 L 32.175781 27.875 L 29.761719 27.875 L 29.761719 25.359375 L 28.894531 25.359375 L 28.894531 27.875 L 26.398438 27.875 L 26.398438 28.742188 L 28.894531 28.742188 Z M 28.894531 31.136719 " fill-opacity="1" fill-rule="nonzero"/></g></svg>